<svg width="314" height="62" viewBox="0 0 942 186" fill="none" xmlns="http://www.w3.org/2000/svg">
    <path d="M706.64 147.45C700.26 147.45 694.653 146.87 689.82 145.71C685.083 144.453 681.458 142.955 678.945 141.215L681.7 125.7C684.6 127.343 687.935 128.793 691.705 130.05C695.572 131.307 699.97 131.935 704.9 131.935C713.697 131.935 720.56 129.47 725.49 124.54C730.517 119.61 733.562 112.408 734.625 102.935H696.925V88.58H734.77C733.997 78.8167 731.29 71.5183 726.65 66.685C722.01 61.8517 715.292 59.435 706.495 59.435C702.048 59.435 698.037 60.0633 694.46 61.32C690.883 62.5767 687.597 64.2683 684.6 66.395L679.815 51.17C682.425 49.3333 686.147 47.69 690.98 46.24C695.813 44.6933 701.662 43.92 708.525 43.92C716.065 43.92 722.88 45.08 728.97 47.4C735.157 49.72 740.425 53.055 744.775 57.405C749.125 61.755 752.46 67.12 754.78 73.5C757.197 79.7833 758.405 86.9367 758.405 94.96C758.405 103.177 757.197 110.572 754.78 117.145C752.46 123.622 749.077 129.132 744.63 133.675C740.28 138.122 734.867 141.553 728.39 143.97C722.01 146.29 714.76 147.45 706.64 147.45ZM808.268 66.25C804.208 66.25 800.631 65.7183 797.538 64.655C794.541 63.5917 792.028 62.19 789.998 60.45C787.968 58.6133 786.421 56.4867 785.358 54.07C784.391 51.5567 783.908 48.85 783.908 45.95H800.728C800.728 49.14 801.26 51.605 802.323 53.345C803.483 54.9883 805.465 55.81 808.268 55.81C811.071 55.81 813.005 54.9883 814.068 53.345C815.228 51.605 815.808 49.14 815.808 45.95H832.483C832.483 48.85 831.951 51.5567 830.888 54.07C829.921 56.4867 828.423 58.6133 826.393 60.45C824.363 62.19 821.85 63.5917 818.853 64.655C815.856 65.7183 812.328 66.25 808.268 66.25ZM771.728 72.485H792.463V121.35L825.378 72.485H844.228V146H823.493V97.135L790.723 146H771.728V72.485ZM898.323 133.675C903.253 133.675 907.265 131.742 910.358 127.875C913.548 123.912 915.143 117.677 915.143 109.17C915.143 100.857 913.548 94.7183 910.358 90.755C907.168 86.7917 903.157 84.81 898.323 84.81C893.393 84.81 889.237 86.7917 885.853 90.755C882.567 94.6217 880.923 100.76 880.923 109.17C880.923 113.423 881.358 117.097 882.228 120.19C883.098 123.283 884.307 125.845 885.853 127.875C887.497 129.808 889.333 131.258 891.363 132.225C893.49 133.192 895.81 133.675 898.323 133.675ZM904.413 147.45C899 147.45 894.36 146.338 890.493 144.115C886.723 141.795 883.582 138.653 881.068 134.69V172.245H859.898V72.485H878.893L880.488 84.665C882.905 80.4117 886.095 77.0767 890.058 74.66C894.118 72.2433 899 71.035 904.703 71.035C908.957 71.035 913.017 71.8083 916.883 73.355C920.75 74.9017 924.133 77.27 927.033 80.46C930.03 83.5533 932.398 87.5167 934.138 92.35C935.878 97.0867 936.748 102.693 936.748 109.17C936.748 115.647 935.878 121.302 934.138 126.135C932.398 130.872 930.03 134.835 927.033 138.025C924.037 141.215 920.605 143.583 916.738 145.13C912.872 146.677 908.763 147.45 904.413 147.45Z"
          fill="white"/>
    <g clip-path="url(#clip0_420_609)">
        <path fill-rule="evenodd" clip-rule="evenodd"
              d="M68.57 41V144.05H50.57V55H42.57C27.84 55 20.17 62.41 20.17 73.41C20.17 85.86 25.48 91.64 36.5 99.06L45.56 105.06L19.48 144.15H0L23.47 109.3C10.01 99.7 2.47 90.24 2.47 74.45C2.44 54.54 16.18 41.1 42.48 41.1H68.57V41ZM287.13 113V103.67C287.13 77.89 275.67 68.17 258.13 68.17C236.61 68.17 226.32 84.51 226.32 106.91C226.32 132.45 239.1 144.91 261.67 144.91C272.92 144.91 281.42 142.42 286.4 139.05V124.65C279.336 128.81 271.288 131.002 263.09 131C250.23 131 245.26 125.09 244.61 113.08H287.13V113ZM244.55 100C244.97 88.31 249.3 82.14 257.7 82.14C266.47 82.14 269.16 89.24 269.16 98.53V100H244.55ZM124.68 69.47V99H101V69.47H83.39V144.1H101V112.91H124.65V144.1H142.43V69.42H124.68V69.47ZM342.75 144.1H362.8L334.53 103.93L359.43 69.47H341.56L316.67 103.93V69.47H299V144.1H316.64V107.46L342.8 144.1H342.75ZM396.75 145.01C373.2 145.01 361.75 131.37 361.75 106.91C361.75 84.35 373.44 68.33 396 68.33C402.526 68.0251 409.033 69.2511 415 71.91V86.91C409.803 83.9084 403.912 82.3159 397.91 82.29C386.37 82.29 379.99 90.46 379.99 106.48C379.99 121.62 385.18 131.06 397.8 131.06C403.927 131.254 409.954 129.481 415 126V140.36C410.67 143.5 404.93 145.01 396.72 145.01H396.75ZM222 130.17H214.11V69.42H162.66V75.85C162.66 94.08 161.42 117.67 155.2 130.12H149.73V160.49H166.06V144.05H205.63V160.49H222V130.17ZM196.51 130.17H171.61C176.54 118.92 177.84 98.57 177.84 85.65V83.47H196.51V130.17Z"
              fill="white"/>
    </g>
    <path d="M643 93C643 169.5 627 186 550 186C473 186 457 169.5 457 93C457 16.5 473.5 0 550 0C626.5 0 643 16.5 643 93Z"
          fill="white"/>
    <mask id="mask0_420_609" style="mask-type:alpha" maskUnits="userSpaceOnUse" x="457" y="0" width="186" height="186">
        <path d="M643 93C643 169.5 627 186 550 186C473 186 457 169.5 457 93C457 16.5 473.5 0 550 0C626.5 0 643 16.5 643 93Z"
              fill="#E9F2FF"/>
    </mask>
    <g mask="url(#mask0_420_609)">
        <path d="M524.577 97.3298L524.743 19.3958C524.748 16.9712 527.587 15.6594 529.436 17.2281L547.65 32.6696C554.168 38.1966 557.92 46.316 557.901 54.862C557.883 63.1486 564.586 69.8805 572.873 69.8987L601.724 69.9602L636.079 123.33L524.577 97.3298Z"
              fill="url(#paint0_linear_420_609)"/>
        <path d="M680.642 173.676L611.657 173.53C598.874 173.502 586.592 168.562 577.35 159.729L525.514 108.67L562.329 108.748L842.859 109.345C857.572 109.376 869.964 119.23 873.852 132.685C875.325 137.781 879.911 141.343 885.216 141.354C893.932 141.374 901.05 148.52 901.031 157.238L901.029 158.295C901.01 167.012 893.863 174.13 885.145 174.11L842.721 174.02L822.095 173.977L741.6 173.805L680.642 173.676Z"
              fill="url(#paint1_linear_420_609)"/>
        <path d="M585.196 108.796L507.904 108.632C503.003 108.621 499.002 104.604 499.013 99.702C499.024 94.8013 503.041 90.8004 507.942 90.811L585.235 90.9752C590.135 90.986 594.136 95.0033 594.126 99.9048C594.115 104.805 590.097 108.806 585.196 108.796Z"
              fill="black"/>
    </g>
    <defs>
        <linearGradient id="paint0_linear_420_609" x1="616.002" y1="112.001" x2="554.567" y2="112.875"
                        gradientUnits="userSpaceOnUse">
            <stop stop-color="#FFDC51"/>
            <stop offset="1" stop-color="#FFCC00"/>
        </linearGradient>
        <linearGradient id="paint1_linear_420_609" x1="594.502" y1="172.001" x2="610.502" y2="111.501"
                        gradientUnits="userSpaceOnUse">
            <stop stop-color="#FFDC51"/>
            <stop offset="1" stop-color="#FFCC01"/>
        </linearGradient>
        <clipPath id="clip0_420_609">
            <rect width="415" height="119.49" fill="white" transform="translate(0 41)"/>
        </clipPath>
    </defs>
</svg>
